<?xml version="1.0" encoding="UTF-8"?>
<svg id="Layer_5" data-name="Layer 5" xmlns="http://www.w3.org/2000/svg" viewBox="0 0 633.32 633.32">
  <defs>
    <style>
      .cls-1 {
        fill: none;
        stroke: #b3121c;
        stroke-miterlimit: 10;
        stroke-width: 34px;
      }

      .cls-2 {
        fill: #b3121c;
      }

      .cls-2, .cls-3 {
        stroke-width: 0px;
      }

      .cls-3 {
        fill: #b3121c;
      }
    </style>
  </defs>
  <g>
    <path class="cls-2" d="M102.52,206.1h-21.84v-15.75h62.47v15.75h-22.05v59.32h-18.58v-59.32Z"/>
    <path class="cls-2" d="M86.09,271.35h17.11v27.93h.32c3.88-5.14,8.5-8.19,15.96-8.19,11.76,0,18.69,8.4,18.69,20.37v34.96h-17.11v-31.5c0-5.67-2.83-9.55-8.4-9.55s-9.45,4.73-9.45,11.34v29.71h-17.11v-75.07Z"/>
    <path class="cls-2" d="M85.09,392.41c0-11.86,9.45-15.43,20.58-16.9,10.08-1.26,13.65-2.31,13.65-5.98,0-3.46-2.21-5.78-7.35-5.78-5.46,0-8.19,2.42-8.71,6.93h-15.75c.42-9.97,8.08-18.48,24.36-18.48,8.08,0,13.54,1.47,17.43,4.41,4.62,3.36,6.82,8.61,6.82,15.33v27.09c0,4.3.42,6.72,1.89,7.66v.74h-16.59c-.84-1.16-1.37-3.25-1.79-5.98h-.21c-3.15,4.51-7.87,7.35-15.96,7.35-10.71,0-18.37-5.78-18.37-16.38ZM119.74,388.21v-6.41c-2.21,1.16-5.35,2-8.82,2.83-6.62,1.47-9.34,3.15-9.34,7.25,0,4.3,3.15,5.98,7.35,5.98,6.4,0,10.81-3.88,10.81-9.66Z"/>
    <path class="cls-2" d="M86.09,414.66h16.48v7.35h.32c3.99-5.77,9.13-8.92,16.59-8.92,11.76,0,18.69,8.4,18.69,20.37v34.96h-17.11v-31.5c0-5.67-2.83-9.55-8.4-9.55s-9.45,4.73-9.45,11.34v29.71h-17.11v-53.76Z"/>
    <path class="cls-2" d="M86.09,474.35h17.11v27.93h.32c3.88-5.14,8.5-8.19,15.96-8.19,11.76,0,18.69,8.4,18.69,20.37v34.96h-17.11v-31.5c0-5.67-2.83-9.55-8.4-9.55s-9.45,4.73-9.45,11.34v29.71h-17.11v-75.07Z"/>
  </g>
  <path class="cls-3" d="M560.83,300.31v237.66c0,12.62-10.23,22.86-22.86,22.86h0c-12.07,0-22.2-9.38-22.8-21.44-2.34-46.57-19.54-84.04-51.5-102.5-63.11-36.45-161.75,14.14-229.26,113.97-4.23,6.25-11.31,9.97-18.86,9.97h-28.42c-20.27,0-30.65-24.56-16.29-38.88,22.57-22.51,43.7-49.86,61.74-81.1,67.06-116.14,66.12-242.2-2.08-281.56-34.29-19.81-79.07-13.93-123.64,11.59-15.31,8.76-34.37-2.09-34.37-19.73v-55.79c0-12.62,10.23-22.86,22.86-22.86h255.45c16.52,0,27.47,16.95,20.88,32.11-44.52,102.45-33.61,199.93,22.74,240.65,43.1,31.14,89.9-5.38,124.4-57.42,12.56-18.95,42-10.25,42,12.48Z"/>
  <rect class="cls-1" x="17" y="17" width="599.32" height="599.32" rx="84.53" ry="84.53"/>
</svg>