<?xml version="1.0" encoding="UTF-8"?>
<svg id="Layer_5" data-name="Layer 5" xmlns="http://www.w3.org/2000/svg" viewBox="0 0 633.32 633.32">
  <defs>
    <style>
      .cls-1 {
        fill: none;
        stroke: #b3121c;
        stroke-miterlimit: 10;
        stroke-width: 34px;
      }

      .cls-2 {
        fill: #b3121c;
      }

      .cls-2, .cls-3 {
        stroke-width: 0px;
      }

      .cls-3 {
        fill: #b3121c;
      }
    </style>
  </defs>
  <g>
    <path class="cls-2" d="M96.8,206.1h-21.84v-15.75h62.47v15.75h-22.05v59.32h-18.58v-59.32Z"/>
    <path class="cls-2" d="M76.75,307.94v-35.28h17.01v31.71c0,5.88,2.62,9.13,8.08,9.13,5.88,0,9.45-4.41,9.45-10.82v-30.03h17.12v53.76h-16.38v-6.61h-.31c-3.88,5.25-8.61,8.19-16.06,8.19-12.39,0-18.9-8.08-18.9-20.05Z"/>
    <path class="cls-2" d="M76.95,333.66h16.48v7.35h.32c3.99-5.77,9.13-8.92,16.59-8.92,11.76,0,18.69,8.4,18.69,20.37v34.96h-17.11v-31.5c0-5.67-2.84-9.55-8.4-9.55s-9.45,4.73-9.45,11.34v29.71h-17.12v-53.76Z"/>
    <path class="cls-2" d="M75.59,449.68h16.59c.95,2.83,3.78,5.25,9.45,5.25,7.24,0,10.29-3.78,10.29-10.29v-5.35h-.42c-3.15,3.57-7.24,6.2-13.75,6.2-12.07,0-23.31-9.03-23.31-25.51s9.24-26.88,22.57-26.88c7.14,0,11.97,2.83,15.12,7.35h.21v-5.77h16.38v48.51c0,8.08-2.84,13.96-7.14,17.85-4.72,4.2-11.76,5.98-19.74,5.98-14.8,0-24.57-6.09-26.25-17.32ZM112.65,419.34c0-7.24-3.78-13.33-10.92-13.33-6.4,0-10.61,5.25-10.61,13.44s4.2,13.33,10.61,13.33c7.46,0,10.92-5.88,10.92-13.44Z"/>
  </g>
  <path class="cls-3" d="M560.83,300.31v237.66c0,12.62-10.23,22.86-22.86,22.86h0c-12.07,0-22.2-9.38-22.8-21.44-2.34-46.57-19.54-84.04-51.5-102.5-63.11-36.45-161.75,14.14-229.26,113.97-4.23,6.25-11.31,9.97-18.86,9.97h-28.42c-20.27,0-30.65-24.56-16.29-38.88,22.57-22.51,43.7-49.86,61.74-81.1,67.06-116.14,66.12-242.2-2.08-281.56-34.29-19.81-79.07-13.93-123.64,11.59-15.31,8.76-34.37-2.09-34.37-19.73v-55.79c0-12.62,10.23-22.86,22.86-22.86h255.45c16.52,0,27.47,16.95,20.88,32.11-44.52,102.45-33.61,199.93,22.74,240.65,43.1,31.14,89.9-5.38,124.4-57.42,12.56-18.95,42-10.25,42,12.48Z"/>
  <rect class="cls-1" x="17" y="17" width="599.32" height="599.32" rx="84.53" ry="84.53"/>
</svg>