<?xml version="1.0" encoding="UTF-8"?>
<svg id="Layer_5" xmlns="http://www.w3.org/2000/svg" viewBox="0 0 633.32 633.32">
  <defs>
    <style>
      .cls-1 {
        fill: none;
        stroke: #b3121c;
        stroke-miterlimit: 10;
        stroke-width: 34px;
      }

      .cls-2 {
        fill: #b3242e;
      }

      .cls-3 {
        fill: #b3121c;
      }
    </style>
  </defs>
  <path class="cls-3" d="M560.83,300.31v237.66c0,12.62-10.23,22.86-22.86,22.86h0c-12.07,0-22.2-9.38-22.8-21.44-2.34-46.57-19.54-84.04-51.5-102.5-63.11-36.45-161.75,14.14-229.26,113.97-4.23,6.25-11.31,9.97-18.86,9.97h-28.42c-20.27,0-30.65-24.56-16.29-38.88,22.57-22.51,43.7-49.86,61.74-81.1,67.06-116.14,66.12-242.2-2.08-281.56-34.29-19.81-79.07-13.93-123.64,11.59-15.31,8.76-34.37-2.09-34.37-19.73v-55.79c0-12.62,10.23-22.86,22.86-22.86h255.45c16.52,0,27.47,16.95,20.88,32.11-44.52,102.45-33.61,199.93,22.74,240.65,43.1,31.14,89.9-5.38,124.4-57.42,12.56-18.95,42-10.25,42,12.48h0Z"/>
  <rect class="cls-1" x="17" y="17" width="599.32" height="599.32" rx="84.53" ry="84.53"/>
  <text/>
  <g>
    <path class="cls-2" d="M77.04,190.79h17.66l10.75,36c1.54,5.18,3.17,12.1,3.17,12.1h.19s1.73-7.01,3.17-12.1l10.66-36h17.18l-22.56,68.64h-17.57l-22.65-68.64Z"/>
    <path class="cls-2" d="M100.66,267.79h15.65v12.67h-15.65v-12.67ZM100.66,287.27h15.65v49.15h-15.65v-49.15Z"/>
    <path class="cls-2" d="M82.18,371.75c0-14.69,10.27-25.92,25.25-25.92,7.01,0,12.57,2.3,16.8,6.14,5.86,5.38,8.74,13.92,8.64,23.9h-35.33c.96,6.62,4.61,10.75,11.04,10.75,4.13,0,6.82-1.82,8.16-4.9h15.26c-1.06,4.42-3.94,8.64-8.26,11.61-4.13,2.88-9.12,4.51-15.36,4.51-16.22,0-26.21-11.23-26.21-26.11ZM117.02,366.57c-.58-5.86-4.22-9.6-9.31-9.6-5.95,0-9.02,3.74-10.08,9.6h19.39Z"/>
    <path class="cls-2" d="M99.22,460.46v-26.4h-6.53v-9.79h6.53v-15.55h15.26v15.55h8.93v9.79h-8.93v23.04c0,3.84,2.11,4.8,5.47,4.8,1.34,0,2.88-.1,3.46-.1v11.42c-1.34.38-4.32.77-8.54.77-9.12,0-15.65-2.98-15.65-13.54Z"/>
  </g>
</svg>